# File created by Blade
# Date/Time:  Tue Sep 23 19:18:47 2014
# Frame Rate: 120.000 fps
#------------------------------------------------------
:FULLY-SPECIFIED
:DEGREES
1472
root 1.819374 34.398712 -0.732932 121.534919 -3.789696 -33.527794
Spine -73.015940 -6.425079 26.209184
Head -26.131569 20.461380 35.672458
LeftShoulder -21.247257 27.556142 38.551486
LeftArm 112.869866 -69.325241 -121.954378
LeftForeArm 13.409389 -0.000000 96.150515
LeftHand -66.274499 0.000000 9.020168
LeftHandThumb1 -26.253704 0.000000 33.147579
RightShoulder -35.182002 -38.705849 -3.545961
RightArm 34.137746 59.882272 84.213223
RightForeArm 57.539793 -0.000000 10.662490
RightHand 12.072037 -0.000000 -2.336165
RightHandThumb1 -24.326973 -0.000000 -32.862282
LeftUpLeg -112.296403 34.762681 2.340702
LeftLeg 0.282389 -0.000000 -0.000000
LeftFoot -2.129055 -0.597269 13.053925
LeftToeBase 3.552921 -0.000000 -0.000000
RightUpLeg -0.836803 9.344355 -29.860638
RightLeg 74.934618 -0.000000 -0.000000
RightFoot 32.430519 6.985528 -0.648829
RightToeBase 39.966333 -0.000000 -0.000000
1473
root 1.869008 34.387956 -0.722167 121.748447 -3.793212 -33.227170
Spine -73.098917 -6.418926 26.186887
Head -26.816210 20.417159 35.395718
LeftShoulder -21.243886 27.601709 38.477874
LeftArm 113.617483 -69.255705 -122.667550
LeftForeArm 13.248968 -0.000000 96.006262
LeftHand -66.258839 0.000000 9.061778
LeftHandThumb1 -26.253704 0.000000 33.147579
RightShoulder -35.005405 -38.662029 -3.507040
RightArm 34.398362 59.986194 84.539390
RightForeArm 57.082333 0.000000 11.123450
RightHand 11.979085 0.000000 -2.582841
RightHandThumb1 -24.326973 -0.000000 -32.862282
LeftUpLeg -112.697173 34.280177 1.795281
LeftLeg -0.201464 -0.000000 0.000000
LeftFoot -1.873434 -1.454268 12.715612
LeftToeBase 3.393686 -0.000000 -0.000000
RightUpLeg -1.130086 9.580310 -30.066159
RightLeg 75.126485 -0.000000 -0.000000
RightFoot 32.404017 6.888172 -0.698418
RightToeBase 39.979436 -0.000000 -0.000000
1474
root 1.929018 34.365084 -0.711626 121.830920 -3.925043 -32.662338
Spine -73.173009 -6.651709 26.190543
Head -27.569229 20.346661 34.998861
LeftShoulder -21.257125 27.516886 38.394306
LeftArm 113.793120 -69.257397 -122.837608
LeftForeArm 13.086476 -0.000000 95.898738
LeftHand -66.157107 -0.000000 9.357535
LeftHandThumb1 -26.253704 0.000000 33.147579
RightShoulder -34.910487 -38.529888 -3.478861
RightArm 34.743921 60.214436 84.916216
RightForeArm 56.311211 -0.000000 11.661379
RightHand 11.701408 -0.000000 -2.957833
RightHandThumb1 -24.326973 -0.000000 -32.862282
LeftUpLeg -112.931271 33.488778 1.431370
LeftLeg -0.658142 -0.000000 0.000000
LeftFoot -1.590229 -2.181526 12.219627
LeftToeBase 3.313592 -0.000000 -0.000000
RightUpLeg -1.043933 9.553951 -30.281268
RightLeg 75.132969 -0.000000 -0.000000
RightFoot 32.382608 6.956938 -0.875697
RightToeBase 40.161305 -0.000000 -0.000000
1475
root 1.979874 34.352062 -0.703379 122.088613 -3.831542 -32.363368
Spine -73.282243 -6.536504 26.254953
Head -28.147763 20.258574 34.662127
LeftShoulder -21.270165 27.519554 38.347333
LeftArm 114.060083 -69.125641 -123.015890
LeftForeArm 12.987680 -0.000000 95.701834
LeftHand -66.224439 -0.000000 9.380226
LeftHandThumb1 -26.253704 0.000000 33.147579
RightShoulder -34.672540 -38.389804 -3.625417
RightArm 34.774841 60.458741 85.092281
RightForeArm 55.352798 -0.000000 12.140280
RightHand 11.386997 -0.000000 -2.861055
RightHandThumb1 -24.326973 -0.000000 -32.862282
LeftUpLeg -113.342180 33.122635 1.092354
LeftLeg -1.046650 -0.000000 0.000000
LeftFoot -1.350040 -2.864110 11.568814
LeftToeBase 3.200395 -0.000000 -0.000000
RightUpLeg -1.315438 9.752501 -30.466215
RightLeg 75.202214 -0.000000 -0.000000
RightFoot 32.295454 6.875827 -0.969468
RightToeBase 40.385933 -0.000000 -0.000000
1476
root 2.022353 34.333543 -0.693993 122.217983 -3.734068 -32.031154
Spine -73.317464 -6.484823 26.307015
Head -28.661169 20.179187 34.351266
LeftShoulder -21.316118 27.559908 38.276019
LeftArm 114.255018 -68.847879 -123.061731
LeftForeArm 13.044337 0.000000 95.480401
LeftHand -66.409129 0.000000 9.074126
LeftHandThumb1 -26.253704 0.000000 33.147579
RightShoulder -34.536420 -38.364668 -3.676961
RightArm 35.070260 60.713468 85.493856
RightForeArm 54.577155 -0.000000 12.695592
RightHand 11.015324 -0.000000 -3.085256
RightHandThumb1 -24.326973 -0.000000 -32.862282
LeftUpLeg -113.613686 32.733361 0.819664
LeftLeg -1.441245 -0.000000 0.000000
LeftFoot -1.156217 -3.617031 10.822932
LeftToeBase 3.249440 -0.000000 -0.000000
RightUpLeg -1.379538 9.952885 -30.592173
RightLeg 75.196420 -0.000000 -0.000000
RightFoot 32.136992 6.712586 -1.103007
RightToeBase 40.403611 -0.000000 -0.000000
1477
root 2.083071 34.316760 -0.684702 122.545007 -3.745519 -31.634551
Spine -73.543370 -6.397932 26.327481
Head -29.303841 20.225189 33.858072
LeftShoulder -21.364967 27.547728 38.200474
LeftArm 114.159300 -68.668356 -122.840419
LeftForeArm 12.759716 -0.000000 95.266146
LeftHand -66.329184 -0.000000 9.242073
LeftHandThumb1 -26.253704 0.000000 33.147579
RightShoulder -34.322647 -38.161412 -3.974282
RightArm 34.978481 60.953284 85.629245
RightForeArm 54.065781 0.000000 13.291240
RightHand 10.709267 -0.000000 -3.462502
RightHandThumb1 -24.326973 -0.000000 -32.862282
LeftUpLeg -114.200380 32.161198 0.270444
LeftLeg -1.771406 -0.000000 0.000000
LeftFoot -0.944888 -4.529202 9.939825
LeftToeBase 3.352656 -0.000000 -0.000000
RightUpLeg -1.533405 9.885929 -30.873034
RightLeg 75.128156 -0.000000 -0.000000
RightFoot 32.097983 6.559801 -1.131955
RightToeBase 40.699102 -0.000000 -0.000000
1478
root 2.142536 34.302065 -0.671084 122.978444 -3.745035 -31.336708
Spine -73.850768 -6.192858 26.305981
Head -29.756575 20.118021 33.531449
LeftShoulder -21.378254 27.494385 38.203248
LeftArm 113.753459 -68.533275 -122.315823
LeftForeArm 12.479073 -0.000000 95.022681
LeftHand -66.214472 -0.000000 9.466491
LeftHandThumb1 -26.253704 0.000000 33.147579
RightShoulder -34.135248 -37.975944 -4.271405
RightArm 34.919498 61.167864 85.741198
RightForeArm 53.489184 -0.000000 13.755196
RightHand 10.510350 0.000000 -3.752008
RightHandThumb1 -24.326973 -0.000000 -32.862282
LeftUpLeg -114.860985 31.671194 -0.333436
LeftLeg -2.135069 -0.000000 0.000000
LeftFoot -0.642134 -5.330301 9.235254
LeftToeBase 3.196915 -0.000000 -0.000000
RightUpLeg -1.806968 9.810634 -31.235387
RightLeg 75.056863 -0.000000 -0.000000
RightFoot 32.120448 6.424093 -1.200036
RightToeBase 40.694145 -0.000000 -0.000000
1479
root 2.196173 34.286603 -0.656577 123.378325 -3.717754 -31.045631
Spine -74.140638 -5.984055 26.298840
Head -30.137006 20.012934 33.258856
LeftShoulder -21.370477 27.478434 38.178697
LeftArm 113.352880 -68.454697 -121.748999
LeftForeArm 11.967503 0.000000 94.792863
LeftHand -66.054072 -0.000000 9.556957
LeftHandThumb1 -26.253704 0.000000 33.147579
RightShoulder -33.984416 -37.871140 -4.510454
RightArm 35.085260 61.452860 86.042414
RightForeArm 52.891378 -0.000000 14.211953
RightHand 10.328680 0.000000 -4.078407
RightHandThumb1 -24.326973 -0.000000 -32.862282
LeftUpLeg -115.506655 31.197105 -0.938993
LeftLeg -2.456022 -0.000000 0.000000
LeftFoot -0.372783 -6.170807 8.250906
LeftToeBase 3.007605 -0.000000 -0.000000
RightUpLeg -1.995727 9.777081 -31.510732
RightLeg 74.918886 -0.000000 -0.000000
RightFoot 32.237057 6.287514 -1.216980
RightToeBase 40.923345 -0.000000 -0.000000
1480
root 2.251790 34.269182 -0.642854 123.724688 -3.801279 -30.705600
Spine -74.420247 -5.891082 26.171408
Head -30.564122 19.936424 33.008637
LeftShoulder -21.341485 27.399258 38.208375
LeftArm 112.880867 -68.343785 -121.088144
LeftForeArm 11.426919 -0.000000 94.548283
LeftHand -66.005906 -0.000000 9.503740
LeftHandThumb1 -26.253704 0.000000 33.147579
RightShoulder -33.856206 -37.674106 -4.758397
RightArm 35.065403 61.754654 86.135680
RightForeArm 52.368900 -0.000000 14.603947
RightHand 10.190836 -0.000000 -4.316887
RightHandThumb1 -24.326973 -0.000000 -32.862282
LeftUpLeg -116.115900 30.541408 -1.653990
LeftLeg -2.788563 -0.000000 0.000000
LeftFoot -0.099246 -7.079714 7.584433
LeftToeBase 2.975582 -0.000000 -0.000000
RightUpLeg -2.029477 9.623725 -31.879312
RightLeg 74.720374 -0.000000 -0.000000
RightFoot 32.398187 6.349274 -1.204955
RightToeBase 40.872590 -0.000000 -0.000000
1481
root 2.303178 34.255742 -0.624872 124.163211 -3.785909 -30.431311
Spine -74.754790 -5.677026 26.086867
Head -30.933707 19.887480 32.818499
LeftShoulder -21.520128 27.439986 38.011247
LeftArm 112.612138 -67.958592 -120.275779
LeftForeArm 11.065934 -0.000000 94.183248
LeftHand -65.872518 0.000000 9.499384
LeftHandThumb1 -26.253704 0.000000 33.147579
RightShoulder -33.754294 -37.594504 -4.925379
RightArm 35.252171 62.092503 86.385016
RightForeArm 51.886048 0.000000 14.952088
RightHand 9.950084 -0.000000 -4.621156
RightHandThumb1 -24.326973 -0.000000 -32.862282
LeftUpLeg -116.783560 30.022834 -2.285166
LeftLeg -3.100828 -0.000000 0.000000
LeftFoot 0.260202 -7.925395 6.811297
LeftToeBase 2.778343 -0.000000 -0.000000
RightUpLeg -2.189166 9.532240 -32.169613
RightLeg 74.497328 -0.000000 -0.000000
RightFoot 32.562430 6.431268 -1.221532
RightToeBase 40.979027 -0.000000 -0.000000
